<svg width="814" height="228" viewBox="0 0 814 228" fill="none" xmlns="http://www.w3.org/2000/svg">
<g filter="url(#filter0_f_88_1509)">
<rect x="34" y="34" width="746" height="160" fill="white"/>
</g>
<path d="M132.236 135H113.516V92.7246H131.914C139.854 92.7246 144.834 96.7969 144.834 103.271C144.834 107.9 141.377 111.768 136.895 112.441V112.676C142.637 113.115 146.855 117.305 146.855 122.9C146.855 130.342 141.26 135 132.236 135ZM122.363 99.3164V110.303H128.721C133.438 110.303 136.133 108.223 136.133 104.648C136.133 101.25 133.76 99.3164 129.629 99.3164H122.363ZM122.363 128.408H129.98C135.078 128.408 137.832 126.24 137.832 122.197C137.832 118.242 134.99 116.133 129.775 116.133H122.363V128.408ZM165.254 109.248C161.504 109.248 158.809 112.09 158.516 116.016H171.846C171.67 112.002 169.062 109.248 165.254 109.248ZM171.963 125.391H179.814C178.877 131.543 173.252 135.674 165.488 135.674C155.82 135.674 150.02 129.492 150.02 119.443C150.02 109.424 155.879 102.92 165.166 102.92C174.307 102.92 180.078 109.102 180.078 118.652V121.26H158.428V121.787C158.428 126.27 161.27 129.346 165.635 129.346C168.77 129.346 171.172 127.793 171.963 125.391ZM188.047 146.631C187.754 146.631 185.088 146.602 184.824 146.543V139.951C185.088 140.01 186.641 140.01 186.963 140.01C190.098 140.01 191.65 139.014 192.236 136.523C192.236 136.406 192.559 135.146 192.5 135.029L181.572 103.594H190.977L197.656 128.145H197.803L204.482 103.594H213.506L202.695 135.703C200 143.76 196.074 146.631 188.047 146.631ZM230.146 135.674C220.654 135.674 214.59 129.58 214.59 119.268C214.59 109.102 220.742 102.92 230.146 102.92C239.551 102.92 245.703 109.072 245.703 119.268C245.703 129.609 239.639 135.674 230.146 135.674ZM230.146 129.141C234.336 129.141 237.002 125.596 237.002 119.297C237.002 113.057 234.307 109.453 230.146 109.453C225.986 109.453 223.262 113.057 223.262 119.297C223.262 125.596 225.928 129.141 230.146 129.141ZM250.127 135V103.594H258.389V109.189H258.564C260.234 105.293 263.545 103.008 268.379 103.008C275.352 103.008 279.277 107.402 279.277 114.756V135H270.723V116.543C270.723 112.441 268.789 110.098 264.951 110.098C261.113 110.098 258.682 112.91 258.682 116.982V135H250.127ZM296.357 135.498C288.506 135.498 283.555 129.287 283.555 119.238C283.555 109.277 288.535 103.096 296.416 103.096C300.957 103.096 304.473 105.498 305.996 108.984H306.172V92.7246H314.727V135H306.289V129.609H306.143C304.619 133.066 300.986 135.498 296.357 135.498ZM299.258 109.951C294.951 109.951 292.314 113.555 292.314 119.297C292.314 125.068 294.951 128.613 299.258 128.613C303.506 128.613 306.23 125.039 306.23 119.297C306.23 113.584 303.506 109.951 299.258 109.951ZM346.426 109.248C342.676 109.248 339.98 112.09 339.688 116.016H353.018C352.842 112.002 350.234 109.248 346.426 109.248ZM353.135 125.391H360.986C360.049 131.543 354.424 135.674 346.66 135.674C336.992 135.674 331.191 129.492 331.191 119.443C331.191 109.424 337.051 102.92 346.338 102.92C355.479 102.92 361.25 109.102 361.25 118.652V121.26H339.6V121.787C339.6 126.27 342.441 129.346 346.807 129.346C349.941 129.346 352.344 127.793 353.135 125.391ZM378.125 124.102H377.949L372.061 135H363.066L372.91 119.355L363.125 103.594H372.764L378.418 114.199H378.594L384.16 103.594H393.477L383.662 119.121L393.389 135H384.102L378.125 124.102ZM415.244 103.096C423.213 103.096 428.105 109.16 428.105 119.297C428.105 129.404 423.242 135.498 415.391 135.498C410.82 135.498 407.305 133.271 405.635 129.727H405.459V145.254H396.904V103.594H405.342V109.072H405.518C407.217 105.381 410.703 103.096 415.244 103.096ZM412.373 128.613C416.65 128.613 419.346 125.01 419.346 119.297C419.346 113.613 416.65 109.951 412.373 109.951C408.184 109.951 405.43 113.672 405.43 119.297C405.43 124.98 408.184 128.613 412.373 128.613ZM446.621 109.248C442.871 109.248 440.176 112.09 439.883 116.016H453.213C453.037 112.002 450.43 109.248 446.621 109.248ZM453.33 125.391H461.182C460.244 131.543 454.619 135.674 446.855 135.674C437.188 135.674 431.387 129.492 431.387 119.443C431.387 109.424 437.246 102.92 446.533 102.92C455.674 102.92 461.445 109.102 461.445 118.652V121.26H439.795V121.787C439.795 126.27 442.637 129.346 447.002 129.346C450.137 129.346 452.539 127.793 453.33 125.391ZM494.404 115.283H486.465C485.967 111.973 483.77 109.629 480.254 109.629C476.035 109.629 473.398 113.203 473.398 119.268C473.398 125.449 476.035 128.965 480.283 128.965C483.711 128.965 485.938 126.914 486.465 123.486H494.434C493.994 130.898 488.457 135.674 480.195 135.674C470.732 135.674 464.727 129.521 464.727 119.268C464.727 109.189 470.732 102.92 480.137 102.92C488.633 102.92 494.023 108.164 494.404 115.283ZM500.85 96.3574H509.404V103.594H515.205V110.039H509.404V125.068C509.404 127.471 510.576 128.613 513.096 128.613C513.857 128.613 514.648 128.555 515.176 128.467V134.766C514.297 134.971 512.832 135.117 511.104 135.117C503.721 135.117 500.85 132.656 500.85 126.533V110.039H496.426V103.594H500.85V96.3574ZM531.729 129.316C535.449 129.316 538.525 126.885 538.525 123.486V121.201L531.904 121.611C528.711 121.846 526.895 123.281 526.895 125.508C526.895 127.852 528.828 129.316 531.729 129.316ZM528.916 135.498C522.939 135.498 518.398 131.631 518.398 125.977C518.398 120.264 522.793 116.953 530.615 116.484L538.525 116.016V113.936C538.525 111.006 536.475 109.307 533.252 109.307C530.059 109.307 528.037 110.889 527.627 113.203H519.805C520.127 107.109 525.312 102.92 533.633 102.92C541.689 102.92 546.934 107.08 546.934 113.408V135H538.672V130.195H538.496C536.738 133.535 532.842 135.498 528.916 135.498ZM554.756 96.3574H563.311V103.594H569.111V110.039H563.311V125.068C563.311 127.471 564.482 128.613 567.002 128.613C567.764 128.613 568.555 128.555 569.082 128.467V134.766C568.203 134.971 566.738 135.117 565.01 135.117C557.627 135.117 554.756 132.656 554.756 126.533V110.039H550.332V103.594H554.756V96.3574ZM573.945 135V103.594H582.5V135H573.945ZM578.223 100.137C575.645 100.137 573.652 98.1738 573.652 95.7129C573.652 93.2227 575.645 91.2891 578.223 91.2891C580.801 91.2891 582.793 93.2227 582.793 95.7129C582.793 98.1738 580.801 100.137 578.223 100.137ZM602.627 135.674C593.135 135.674 587.07 129.58 587.07 119.268C587.07 109.102 593.223 102.92 602.627 102.92C612.031 102.92 618.184 109.072 618.184 119.268C618.184 129.609 612.119 135.674 602.627 135.674ZM602.627 129.141C606.816 129.141 609.482 125.596 609.482 119.297C609.482 113.057 606.787 109.453 602.627 109.453C598.467 109.453 595.742 113.057 595.742 119.297C595.742 125.596 598.408 129.141 602.627 129.141ZM622.607 135V103.594H630.869V109.189H631.045C632.715 105.293 636.025 103.008 640.859 103.008C647.832 103.008 651.758 107.402 651.758 114.756V135H643.203V116.543C643.203 112.441 641.27 110.098 637.432 110.098C633.594 110.098 631.162 112.91 631.162 116.982V135H622.607ZM656.65 112.822C656.65 106.846 661.836 102.92 669.893 102.92C677.773 102.92 682.9 106.904 683.018 112.998H675.137C674.961 110.479 672.939 108.926 669.775 108.926C666.816 108.926 664.883 110.273 664.883 112.295C664.883 113.848 666.23 114.902 668.984 115.547L674.99 116.836C681.289 118.242 683.838 120.732 683.838 125.42C683.838 131.602 678.154 135.674 669.863 135.674C661.484 135.674 656.328 131.631 655.859 125.508H664.209C664.619 128.145 666.699 129.668 670.098 129.668C673.35 129.668 675.312 128.379 675.312 126.328C675.312 124.746 674.258 123.867 671.445 123.193L665.645 121.904C659.697 120.557 656.65 117.451 656.65 112.822ZM690.43 92.7246H699.219L698.516 121.084H691.133L690.43 92.7246ZM694.824 135.732C692.158 135.732 690.049 133.711 690.049 131.133C690.049 128.555 692.158 126.533 694.824 126.533C697.49 126.533 699.6 128.555 699.6 131.133C699.6 133.711 697.49 135.732 694.824 135.732Z" fill="black"/>
<defs>
<filter id="filter0_f_88_1509" x="0" y="0" width="814" height="228" filterUnits="userSpaceOnUse" color-interpolation-filters="sRGB">
<feFlood flood-opacity="0" result="BackgroundImageFix"/>
<feBlend mode="normal" in="SourceGraphic" in2="BackgroundImageFix" result="shape"/>
<feGaussianBlur stdDeviation="17" result="effect1_foregroundBlur_88_1509"/>
</filter>
</defs>
</svg>
