<svg width="64" height="64" viewBox="0 0 64 64" fill="none" xmlns="http://www.w3.org/2000/svg">
<path d="M37.3544 12.4443C50.4226 12.4443 51.4453 13.4671 51.4453 26.5352V38.3534C51.4453 51.4216 50.4226 52.4443 37.3544 52.4443H25.5362C12.468 52.4443 11.4453 51.4216 11.4453 38.3534V26.5352C11.4453 13.4671 12.468 12.4443 25.5362 12.4443H37.3544ZM40.1871 30.6671V27.2216C40.1871 27.2216 38.3662 27.2307 36.828 25.8216C35.5353 24.638 35.428 22.4189 35.428 22.4189H31.9826C31.9826 22.4189 31.9826 34.1771 31.9826 36.0498C31.9826 37.9225 30.3526 38.8925 29.1835 38.8925C28.3026 38.8925 26.298 38.2016 26.298 36.028C26.298 33.7462 28.6026 33.1643 29.2053 33.1643C29.808 33.1643 30.0453 33.2934 30.0453 33.2934V29.6571C30.0453 29.6571 29.4853 29.6034 29.0762 29.5898C25.599 29.4716 22.7235 32.5925 22.7235 36.0289C22.7235 38.9316 24.9935 42.4462 29.1408 42.4462C33.558 42.4462 35.5799 38.7625 35.5799 36.0507C35.5799 34.0698 35.5799 29.2889 35.5799 29.2889C35.5799 29.2889 36.8508 29.9998 37.8844 30.3225C38.9171 30.6452 40.1871 30.6671 40.1871 30.6671Z" fill="black"/>
</svg>
